<svg width="149" height="87" viewBox="0 0 149 87" fill="none" xmlns="http://www.w3.org/2000/svg">
<path d="M2.14677 59.0241C7.46504 26.6321 33.977 25.0486 46.2852 26.9193L40.5635 64.5644L2.14677 59.0241Z" fill="#D9D9D9" stroke="black"/>
<rect x="-0.569454" y="0.419192" width="141.794" height="6.08418" transform="matrix(-0.988646 -0.150263 -0.150263 0.988646 141.865 79.7441)" fill="#FDD219" stroke="black"/>
<rect x="-0.569454" y="0.419192" width="103.46" height="37.963" transform="matrix(-0.988646 -0.150263 -0.150263 0.988646 147.631 41.807)" fill="#C493DB" stroke="black"/>
<line y1="-1" x2="9.44557" y2="-1" transform="matrix(-0.150263 0.988646 0.988646 0.150263 67.2183 29.5035)" stroke="black" stroke-width="2"/>
<line y1="-1" x2="9.44557" y2="-1" transform="matrix(-0.150263 0.988646 0.988646 0.150263 57.7437 28.0635)" stroke="black" stroke-width="2"/>
<line y1="-1" x2="9.44557" y2="-1" transform="matrix(-0.150263 0.988646 0.988646 0.150263 62.4805 28.7834)" stroke="black" stroke-width="2"/>
<path d="M62.1935 15.006C61.0902 22.2648 65.6711 28.8541 72.2538 29.8546C78.8365 30.8551 85.1683 25.9244 86.2715 18.6656C87.3748 11.4067 82.7939 4.81743 76.2112 3.81694C69.6286 2.81645 63.2968 7.74714 62.1935 15.006Z" stroke="black" stroke-width="2"/>
<path d="M67.878 15.87C66.7773 23.1116 71.4454 29.7318 78.1751 30.7547C84.9048 31.7775 91.3291 26.8432 92.4297 19.6016C93.5304 12.36 88.8623 5.73981 82.1326 4.71697C75.4029 3.69413 68.9786 8.62846 67.878 15.87Z" stroke="black" stroke-width="2"/>
<line y1="-1" x2="22.628" y2="-1" transform="matrix(0.11311 0.993583 0.975893 -0.218248 77.1401 31.0116)" stroke="black" stroke-width="2"/>
<line y1="-1" x2="22.2879" y2="-1" transform="matrix(-0.343837 0.93903 0.907039 0.421046 76.6533 30.9376)" stroke="black" stroke-width="2"/>
</svg>
