<svg width="598" height="430" viewBox="0 0 598 430" fill="none" xmlns="http://www.w3.org/2000/svg">
<rect x="24.5" y="208.5" width="486" height="220" fill="#FDD219" stroke="black"/>
<path d="M510.983 428.621V208.992L875.317 53.7534L873.263 213.045L510.983 428.621Z" fill="#FDD219" stroke="black"/>
<path d="M2.89519 172.904L436.591 18.4999L888.575 18.5L526.051 172.904H2.89519Z" fill="#FDD219" stroke="black"/>
<path d="M121.796 172.5L538.589 18.5L783.46 18.5001L407.402 172.5H121.796Z" fill="#21C4CE" stroke="black"/>
<path d="M526.414 172.298L887.495 19.1058C888.468 18.693 889.552 19.3891 889.581 20.4456L890.463 52.6512C890.48 53.2677 890.118 53.8316 889.55 54.0728L527.587 207.858C526.597 208.278 525.5 207.552 525.5 206.477V173.679C525.5 173.077 525.86 172.533 526.414 172.298Z" fill="#FDD219" stroke="black"/>
<rect x="0.5" y="172.5" width="525" height="36" rx="1.5" fill="#FDD219" stroke="black"/>
<rect x="122.5" y="172.5" width="285" height="36" fill="#21C4CE" stroke="black"/>
<rect x="197" y="227" width="298.376" height="184.545" fill="white"/>
<line x1="232.684" y1="227" x2="232.684" y2="411.239" stroke="black"/>
<line x1="232.183" y1="274.127" x2="495.002" y2="274.127" stroke="black"/>
<line x1="232.18" y1="320.813" x2="495.379" y2="318.62" stroke="black"/>
<line x1="232.18" y1="366.873" x2="495.379" y2="364.679" stroke="black"/>
<line x1="318.224" y1="320.12" x2="318.224" y2="366.179" stroke="black"/>
<line x1="410.343" y1="319.12" x2="410.343" y2="365.179" stroke="black"/>
<line x1="306.257" y1="398.216" x2="306.257" y2="380.533" stroke="black"/>
<line x1="311.24" y1="398.284" x2="311.24" y2="380.601" stroke="black" stroke-width="2"/>
<line x1="317.82" y1="398.284" x2="317.82" y2="380.601" stroke="black" stroke-width="2"/>
<line x1="322.707" y1="398.284" x2="322.707" y2="380.601" stroke="black"/>
<line x1="327.094" y1="398.284" x2="327.094" y2="380.601" stroke="black"/>
<line x1="344.141" y1="398.147" x2="344.141" y2="380.601" stroke="black" stroke-width="2"/>
<line x1="352.914" y1="398.147" x2="352.914" y2="380.601" stroke="black" stroke-width="2"/>
<line x1="357.8" y1="398.147" x2="357.8" y2="380.601" stroke="black"/>
<line x1="364.38" y1="398.147" x2="364.38" y2="380.601" stroke="black"/>
<line x1="336.561" y1="398.284" x2="336.561" y2="380.601" stroke="black" stroke-width="4"/>
<line x1="368.767" y1="398.284" x2="368.767" y2="380.601" stroke="black"/>
<line x1="373.75" y1="398.352" x2="373.75" y2="380.669" stroke="black" stroke-width="2"/>
<line x1="380.33" y1="398.352" x2="380.33" y2="380.669" stroke="black" stroke-width="2"/>
<line x1="385.217" y1="398.352" x2="385.217" y2="380.669" stroke="black"/>
<line x1="389.603" y1="398.352" x2="389.603" y2="380.669" stroke="black"/>
<line x1="406.65" y1="398.216" x2="406.65" y2="380.669" stroke="black" stroke-width="2"/>
<line x1="415.423" y1="398.216" x2="415.423" y2="380.669" stroke="black" stroke-width="2"/>
<line x1="420.31" y1="398.216" x2="420.31" y2="380.669" stroke="black"/>
<line x1="426.89" y1="398.216" x2="426.89" y2="380.669" stroke="black"/>
<line x1="399.07" y1="398.352" x2="399.07" y2="380.669" stroke="black" stroke-width="4"/>
</svg>
