<svg width="566" height="483" viewBox="0 0 566 483" fill="none" xmlns="http://www.w3.org/2000/svg">
<rect x="55.5" y="127.532" width="509" height="314" fill="#F78828" stroke="black"/>
<rect x="0.5" y="168.38" width="509" height="314" fill="#F78828" stroke="black"/>
<path d="M221 127.38C247.833 32.0108 320.9 -101.507 398.5 127.38" stroke="black" stroke-width="2"/>
<path d="M163.5 168.38C190.333 73.0108 263.4 -60.5068 341 168.38" stroke="black" stroke-width="2"/>
<line y1="410.973" x2="510" y2="410.973" stroke="black" stroke-width="2"/>
<line x1="54.5" y1="455.99" x2="54.5" y2="431.981" stroke="black"/>
<line x1="62" y1="455.99" x2="62" y2="431.981" stroke="black" stroke-width="2"/>
<line x1="71" y1="455.99" x2="71" y2="431.981" stroke="black" stroke-width="2"/>
<line x1="68" y1="455.99" x2="68" y2="431.981" stroke="black" stroke-width="2"/>
<line x1="80" y1="455.99" x2="80" y2="431.981" stroke="black" stroke-width="2"/>
<line x1="89" y1="455.99" x2="89" y2="431.981" stroke="black" stroke-width="2"/>
<line x1="92" y1="455.99" x2="92" y2="431.981" stroke="black" stroke-width="2"/>
<line x1="77.5" y1="455.99" x2="77.5" y2="431.981" stroke="black"/>
<line x1="83.5" y1="455.99" x2="83.5" y2="431.981" stroke="black"/>
<line x1="74.5" y1="455.99" x2="74.5" y2="431.981" stroke="black"/>
<line x1="85.5" y1="455.99" x2="85.5" y2="431.981" stroke="black"/>
<line x1="94.5" y1="455.99" x2="94.5" y2="431.981" stroke="black"/>
<line x1="101.5" y1="455.99" x2="101.5" y2="431.981" stroke="black"/>
<line x1="103.5" y1="455.99" x2="103.5" y2="431.981" stroke="black"/>
<line x1="108" y1="455.99" x2="108" y2="431.981" stroke="black" stroke-width="2"/>
<line x1="120" y1="455.99" x2="120" y2="431.981" stroke="black" stroke-width="2"/>
<line x1="126.5" y1="455.99" x2="126.5" y2="431.981" stroke="black"/>
<line x1="135.5" y1="455.99" x2="135.5" y2="431.981" stroke="black"/>
<line x1="133.5" y1="455.99" x2="133.5" y2="431.981" stroke="black"/>
<line x1="144.5" y1="455.99" x2="144.5" y2="431.981" stroke="black"/>
<line x1="140.5" y1="455.99" x2="140.5" y2="431.981" stroke="black"/>
<line x1="146.5" y1="455.99" x2="146.5" y2="431.981" stroke="black"/>
<line x1="116.5" y1="455.99" x2="116.5" y2="431.981" stroke="black"/>
<line x1="122.5" y1="455.99" x2="122.5" y2="431.981" stroke="black"/>
<line x1="98" y1="455.99" x2="98" y2="431.981" stroke="black" stroke-width="4"/>
<line x1="112" y1="455.99" x2="112" y2="431.981" stroke="black" stroke-width="4"/>
<line x1="130" y1="455.99" x2="130" y2="431.981" stroke="black" stroke-width="4"/>
<line x1="153" y1="455.99" x2="153" y2="431.981" stroke="black" stroke-width="4"/>
<line x1="149" y1="455.99" x2="149" y2="431.981" stroke="black" stroke-width="2"/>
<line x1="138" y1="455.99" x2="138" y2="431.981" stroke="black" stroke-width="2"/>
<line x1="158" y1="455.99" x2="158" y2="431.981" stroke="black" stroke-width="2"/>
<line x1="169" y1="455.99" x2="169" y2="431.981" stroke="black" stroke-width="2"/>
<line x1="165.5" y1="455.99" x2="165.5" y2="431.981" stroke="black"/>
<line x1="171.5" y1="455.99" x2="171.5" y2="431.981" stroke="black"/>
<line x1="209.5" y1="455.99" x2="209.5" y2="431.981" stroke="black"/>
<line x1="160.5" y1="455.99" x2="160.5" y2="431.981" stroke="black"/>
<line x1="124.5" y1="455.99" x2="124.5" y2="431.981" stroke="black"/>
<line x1="177" y1="455.99" x2="177" y2="431.981" stroke="black" stroke-width="2"/>
<line x1="174" y1="455.99" x2="174" y2="431.981" stroke="black" stroke-width="2"/>
<line x1="186" y1="455.99" x2="186" y2="431.981" stroke="black" stroke-width="2"/>
<line x1="195" y1="455.99" x2="195" y2="431.981" stroke="black" stroke-width="2"/>
<line x1="198" y1="455.99" x2="198" y2="431.981" stroke="black" stroke-width="2"/>
<line x1="183.5" y1="455.99" x2="183.5" y2="431.981" stroke="black"/>
<line x1="189.5" y1="455.99" x2="189.5" y2="431.981" stroke="black"/>
<line x1="180.5" y1="455.99" x2="180.5" y2="431.981" stroke="black"/>
<line x1="191.5" y1="455.99" x2="191.5" y2="431.981" stroke="black"/>
<line x1="200.5" y1="455.99" x2="200.5" y2="431.981" stroke="black"/>
<line x1="207.5" y1="455.99" x2="207.5" y2="431.981" stroke="black"/>
<line x1="204" y1="455.99" x2="204" y2="431.981" stroke="black" stroke-width="4"/>
<path d="M510.5 481.877V168.251L564.5 127.996V441.749L510.5 481.877Z" fill="#F78828" stroke="black"/>
<path d="M54.5 167.5H1.50732L54.5 127.996V167.5Z" fill="#F78828" stroke="black"/>
<line x1="564.598" y1="370.802" x2="509.598" y2="411.802" stroke="black" stroke-width="2"/>
<path d="M538.5 390V146.996" stroke="black"/>
<path d="M538.5 390.5L510.5 481" stroke="black"/>
<path d="M539 390.5L564.5 441.5" stroke="black"/>
</svg>
