<svg width="597" height="669" viewBox="0 0 597 669" fill="none" xmlns="http://www.w3.org/2000/svg">
<rect x="33.4988" y="0.866984" width="596.097" height="197.186" transform="rotate(19.5 33.4988 0.866984)" fill="#28BD40" stroke="black"/>
<rect x="110.141" y="28.008" width="433.484" height="497.005" transform="rotate(19.5 110.141 28.008)" fill="#28BD40" stroke="black"/>
<path d="M410.981 134.541C391.693 188.221 333.696 216.625 281.209 198.038C228.723 179.452 201.525 120.879 220.318 67.0232L410.981 134.541Z" fill="#28BD40" stroke="black"/>
<rect x="255.115" y="87.2666" width="127.811" height="28.5632" rx="4.5" transform="rotate(19.4832 255.115 87.2666)" fill="black" stroke="black"/>
<path d="M263.221 110.903C262.147 110.523 261.481 109.891 261.223 109.007C260.967 108.119 261.051 107.075 261.475 105.877L263.356 100.56L264.297 100.893L262.398 106.261C262.067 107.198 261.973 107.989 262.117 108.634C262.266 109.277 262.739 109.739 263.533 110.02C264.324 110.3 264.982 110.235 265.509 109.827C266.037 109.414 266.465 108.744 266.793 107.816L268.692 102.448L269.627 102.778L267.769 108.031C267.335 109.255 266.736 110.136 265.971 110.672C265.208 111.205 264.291 111.281 263.221 110.903ZM271.273 113.723C270.77 113.545 270.33 113.287 269.951 112.95C269.574 112.609 269.299 112.205 269.126 111.737C268.953 111.27 268.916 110.766 269.015 110.226L269.978 110.27C269.881 110.68 269.89 111.06 270.003 111.41C270.122 111.756 270.318 112.056 270.592 112.307C270.867 112.554 271.194 112.745 271.572 112.878C272.147 113.082 272.655 113.102 273.095 112.939C273.535 112.775 273.853 112.414 274.051 111.856C274.182 111.486 274.197 111.141 274.098 110.821C274.003 110.502 273.844 110.214 273.621 109.956C273.403 109.695 273.097 109.379 272.702 109.007C272.283 108.608 271.952 108.266 271.709 107.982C271.472 107.695 271.301 107.366 271.195 106.995C271.094 106.626 271.12 106.222 271.276 105.784C271.434 105.337 271.682 104.977 272.02 104.705C272.357 104.433 272.745 104.268 273.181 104.21C273.619 104.147 274.057 104.193 274.495 104.348C275.041 104.541 275.483 104.829 275.822 105.209C276.167 105.588 276.391 106.061 276.494 106.629L275.647 106.852C275.594 106.441 275.438 106.091 275.178 105.801C274.919 105.506 274.597 105.291 274.21 105.154C273.948 105.061 273.681 105.03 273.41 105.059C273.143 105.091 272.901 105.186 272.685 105.347C272.473 105.509 272.317 105.729 272.218 106.008C272.097 106.352 272.082 106.673 272.175 106.972C272.273 107.268 272.426 107.539 272.633 107.787C272.847 108.031 273.145 108.33 273.527 108.683C273.964 109.089 274.305 109.442 274.552 109.742C274.803 110.043 274.981 110.394 275.086 110.794C275.192 111.193 275.159 111.634 274.989 112.115C274.806 112.631 274.523 113.043 274.138 113.351C273.759 113.657 273.319 113.842 272.818 113.907C272.316 113.971 271.801 113.91 271.273 113.723ZM283.622 110.094L281.457 109.328L281.737 108.535L282.846 108.927C283.207 109.055 283.525 109.049 283.802 108.91C284.078 108.771 284.275 108.534 284.394 108.199L284.456 108.025L285.3 108.323L282.078 117.429L281.144 117.099L283.622 110.094ZM289.006 117.074L284.797 115.585L284.984 115.057L291.409 110.485L292.253 110.783L290.195 116.603L291.645 117.116L291.364 117.908L289.914 117.395L289.032 119.89L288.123 119.568L289.006 117.074ZM289.286 116.281L290.845 111.873L286.154 115.173L289.286 116.281Z" fill="white"/>
<path d="M327.552 123.643L330.11 124.549C330.643 124.737 331.087 125.008 331.44 125.36C331.799 125.714 332.03 126.125 332.136 126.592C332.247 127.057 332.213 127.543 332.033 128.05C331.889 128.458 331.679 128.799 331.403 129.074C331.128 129.344 330.805 129.534 330.432 129.644C330.064 129.756 329.67 129.778 329.248 129.711L330.201 134.827L329.106 134.439L328.277 129.527L326.717 128.975L325.265 133.08L324.33 132.75L327.552 123.643ZM328.832 128.715C329.357 128.872 329.827 128.869 330.242 128.707C330.657 128.544 330.953 128.214 331.129 127.715C331.252 127.367 331.276 127.04 331.201 126.733C331.132 126.423 330.978 126.154 330.74 125.924C330.502 125.695 330.199 125.515 329.829 125.385L328.205 124.81L327.047 128.084L328.832 128.715ZM334.955 136.639C333.881 136.259 333.215 135.627 332.957 134.743C332.701 133.855 332.785 132.811 333.209 131.613L335.09 126.296L336.031 126.629L334.132 131.997C333.8 132.934 333.707 133.725 333.851 134.37C334 135.013 334.473 135.475 335.267 135.756C336.058 136.036 336.716 135.971 337.243 135.563C337.771 135.15 338.199 134.48 338.527 133.552L340.426 128.184L341.361 128.514L339.502 133.767C339.069 134.991 338.47 135.872 337.705 136.408C336.941 136.941 336.025 137.017 334.955 136.639ZM348.482 138.473L344.274 136.985L344.461 136.456L350.886 131.884L351.73 132.183L349.671 138.002L351.121 138.515L350.841 139.308L349.391 138.795L348.508 141.289L347.6 140.967L348.482 138.473ZM348.762 137.681L350.322 133.273L345.63 136.573L348.762 137.681ZM355.97 141.123L351.762 139.634L351.949 139.106L358.374 134.534L359.218 134.832L357.16 140.652L358.61 141.165L358.329 141.957L356.879 141.444L355.997 143.938L355.088 143.617L355.97 141.123ZM356.251 140.33L357.81 135.922L353.119 139.222L356.251 140.33Z" fill="white"/>
<line x1="313.492" y1="114.21" x2="308.119" y2="129.148" stroke="white"/>
<rect x="564.293" y="214.112" width="24.6117" height="91.8498" transform="rotate(19.4964 564.293 214.112)" fill="#FDD219" stroke="black"/>
</svg>
