<svg width="158" height="147" viewBox="0 0 158 147" fill="none" xmlns="http://www.w3.org/2000/svg">
<rect x="0.951922" y="26.2565" width="150.206" height="49.1876" transform="rotate(-9.67556 0.951922 26.2565)" fill="#FDD219" stroke="black"/>
<rect x="21.2488" y="22.7961" width="109.027" height="125.112" transform="rotate(-9.67556 21.2488 22.7961)" fill="#FDD219" stroke="black"/>
<path d="M100.178 9.33912C102.287 23.2566 93.138 36.2863 79.5698 38.5996C66.0016 40.9129 53.052 31.6508 50.4304 17.8208L100.178 9.33912Z" fill="#FDD219" stroke="black"/>
<rect x="58.5833" y="19.3975" width="33.984" height="7.02912" rx="0.5" transform="rotate(-9.67556 58.5833 19.3975)" fill="black" stroke="black"/>
<path d="M64.7311 22.8996C64.4904 22.9407 64.2998 22.8919 64.1593 22.7534C64.0186 22.6139 63.9254 22.4099 63.8796 22.1413L63.6765 20.95L63.8873 20.9141L64.0924 22.1169C64.1282 22.3268 64.1932 22.4846 64.2876 22.5904C64.3827 22.695 64.5193 22.7322 64.6974 22.7018C64.8745 22.6716 64.991 22.5908 65.0469 22.4594C65.1026 22.3271 65.1127 22.157 65.0772 21.949L64.8721 20.7462L65.0815 20.7105L65.2822 21.8873C65.329 22.1617 65.3088 22.389 65.2216 22.5693C65.1343 22.7487 64.9708 22.8588 64.7311 22.8996ZM66.5322 22.5866C66.4196 22.6058 66.3103 22.6036 66.2042 22.5801C66.098 22.5556 66.0043 22.5087 65.9231 22.4393C65.842 22.3699 65.7825 22.2795 65.7446 22.1681L65.9295 22.0757C65.9542 22.1626 65.9954 22.2328 66.0531 22.2864C66.1116 22.3388 66.1795 22.3743 66.257 22.3928C66.3343 22.4103 66.4153 22.4119 66.5 22.3974C66.629 22.3754 66.7261 22.3262 66.7913 22.2497C66.8565 22.1732 66.8785 22.0724 66.8571 21.9472C66.843 21.8644 66.8099 21.7982 66.7579 21.7487C66.7068 21.6989 66.6469 21.6616 66.5783 21.6366C66.5105 21.6106 66.4201 21.5834 66.3073 21.555C66.1871 21.524 66.0895 21.4946 66.0144 21.4668C65.9401 21.4378 65.8737 21.3942 65.8152 21.3358C65.7577 21.2773 65.7206 21.1989 65.7038 21.1007C65.6867 21.0006 65.6956 20.9074 65.7305 20.8212C65.7653 20.7351 65.8205 20.6637 65.8961 20.6073C65.9715 20.5498 66.0583 20.5127 66.1565 20.496C66.2787 20.4752 66.3915 20.4827 66.4947 20.5186C66.5987 20.5534 66.69 20.6185 66.7687 20.7141L66.6334 20.8441C66.5806 20.7729 66.5148 20.7237 66.4358 20.6965C66.3568 20.6684 66.2739 20.6617 66.1872 20.6765C66.1285 20.6865 66.0753 20.7085 66.0276 20.7424C65.9808 20.7761 65.9456 20.8192 65.9219 20.8718C65.8991 20.9243 65.8931 20.9817 65.9037 21.0443C65.9169 21.1213 65.9477 21.183 65.9962 21.2292C66.0455 21.2743 66.1024 21.3091 66.1671 21.3338C66.2325 21.3573 66.3194 21.3821 66.4279 21.4082C66.552 21.4385 66.6527 21.4689 66.7302 21.4993C66.8087 21.5295 66.8786 21.5765 66.94 21.6403C67.0014 21.7042 67.0413 21.79 67.0597 21.8978C67.0794 22.0133 67.0694 22.1201 67.0296 22.218C66.9906 22.3148 66.9276 22.3954 66.8405 22.4597C66.7534 22.5241 66.6506 22.5664 66.5322 22.5866ZM68.4642 20.6182L67.979 20.7009L67.9488 20.5233L68.1971 20.4809C68.278 20.4671 68.337 20.4328 68.3742 20.3779C68.4114 20.323 68.4236 20.2581 68.4108 20.183L68.4042 20.144L68.5934 20.1117L68.9412 22.1521L68.7318 22.1878L68.4642 20.6182ZM70.2004 21.3623L69.2575 21.5231L69.2373 21.4047L69.9623 19.8783L70.1514 19.8461L70.3737 21.15L70.6986 21.0946L70.7289 21.2722L70.404 21.3276L70.4993 21.8865L70.2957 21.9212L70.2004 21.3623ZM70.1701 21.1847L70.0017 20.197L69.4684 21.3044L70.1701 21.1847Z" fill="white"/>
<path d="M81.4723 17.9571L82.0455 17.8594C82.1649 17.839 82.2761 17.8433 82.3791 17.8723C82.4831 17.9012 82.5693 17.9538 82.6379 18.0303C82.7072 18.1057 82.7515 18.2002 82.7709 18.3138C82.7865 18.4052 82.7828 18.491 82.7598 18.5712C82.7367 18.6505 82.696 18.7198 82.6378 18.7793C82.5805 18.8386 82.509 18.884 82.4232 18.9154L83.1356 19.7732L82.8901 19.8151L82.2221 18.9824L81.8727 19.042L82.0295 19.9618L81.8201 19.9975L81.4723 17.9571ZM82.2413 18.7726C82.3559 18.7471 82.4435 18.6975 82.5042 18.6237C82.565 18.55 82.5858 18.4573 82.5668 18.3456C82.5535 18.2676 82.5238 18.2038 82.4777 18.1542C82.4324 18.1035 82.3755 18.0691 82.307 18.0511C82.2386 18.033 82.163 18.031 82.0802 18.0452L81.7163 18.1072L81.8413 18.8408L82.2413 18.7726ZM84.2144 19.616C83.9737 19.6571 83.7831 19.6083 83.6426 19.4698C83.5019 19.3303 83.4087 19.1263 83.3629 18.8577L83.1598 17.6664L83.3706 17.6305L83.5757 18.8333C83.6115 19.0432 83.6765 19.201 83.7709 19.3068C83.866 19.4114 84.0026 19.4486 84.1807 19.4182C84.3578 19.388 84.4743 19.3072 84.5302 19.1758C84.5859 19.0435 84.596 18.8734 84.5605 18.6654L84.3554 17.4626L84.5648 17.4269L84.7655 18.6037C84.8122 18.8781 84.7921 19.1054 84.7049 19.2857C84.6176 19.4651 84.4541 19.5752 84.2144 19.616ZM86.9372 18.547L85.9943 18.7078L85.9741 18.5894L86.6991 17.063L86.8882 17.0308L87.1105 18.3347L87.4354 18.2793L87.4657 18.4569L87.1408 18.5123L87.2361 19.0711L87.0325 19.1058L86.9372 18.547ZM86.9069 18.3694L86.7385 17.3817L86.2052 18.4891L86.9069 18.3694ZM88.6152 18.2609L87.6722 18.4217L87.652 18.3033L88.377 16.7769L88.5662 16.7447L88.7885 18.0486L89.1134 17.9932L89.1437 18.1708L88.8188 18.2262L88.914 18.7851L88.7104 18.8198L88.6152 18.2609ZM88.5849 18.0833L88.4165 17.0956L87.8831 18.203L88.5849 18.0833Z" fill="white"/>
<line x1="75.9338" y1="17.7055" x2="76.6361" y2="21.9595" stroke="white"/>
</svg>
