<svg width="326" height="383" viewBox="0 0 326 383" fill="none" xmlns="http://www.w3.org/2000/svg">
<mask id="path-1-inside-1_362_7" fill="white">
<path fill-rule="evenodd" clip-rule="evenodd" d="M324.971 64.2196L213.68 34.3994L178.929 164.093L43.9652 225.064C18.7998 236.433 7.6153 266.05 18.984 291.215L25.7911 306.283C36.9457 330.975 65.7373 342.289 90.7179 331.798L257.043 261.945C258.31 261.413 259.525 260.802 260.682 260.119C268.809 256.608 275.311 249.55 277.781 240.334L324.971 64.2196Z"/>
</mask>
<path fill-rule="evenodd" clip-rule="evenodd" d="M324.971 64.2196L213.68 34.3994L178.929 164.093L43.9652 225.064C18.7998 236.433 7.6153 266.05 18.984 291.215L25.7911 306.283C36.9457 330.975 65.7373 342.289 90.7179 331.798L257.043 261.945C258.31 261.413 259.525 260.802 260.682 260.119C268.809 256.608 275.311 249.55 277.781 240.334L324.971 64.2196Z" fill="#FA5456"/>
<path d="M213.68 34.3994L213.939 33.4335L212.973 33.1746L212.714 34.1406L213.68 34.3994ZM324.971 64.2196L325.937 64.4784L326.195 63.5125L325.229 63.2537L324.971 64.2196ZM178.929 164.093L179.34 165.005L179.772 164.81L179.895 164.352L178.929 164.093ZM43.9652 225.064L43.5535 224.153L43.9652 225.064ZM18.984 291.215L18.0727 291.627L18.984 291.215ZM25.7911 306.283L24.8798 306.695L24.8798 306.695L25.7911 306.283ZM90.7179 331.798L90.3306 330.876L90.7179 331.798ZM257.043 261.945L256.656 261.023L257.043 261.945ZM260.682 260.119L260.285 259.201L260.228 259.226L260.174 259.258L260.682 260.119ZM213.421 35.3653L324.712 65.1855L325.229 63.2537L213.939 33.4335L213.421 35.3653ZM179.895 164.352L214.646 34.6582L212.714 34.1406L177.963 163.834L179.895 164.352ZM44.3769 225.975L179.34 165.005L178.517 163.182L43.5535 224.153L44.3769 225.975ZM19.8953 290.803C8.754 266.141 19.7148 237.117 44.3769 225.975L43.5535 224.153C17.8848 235.749 6.4766 265.958 18.0727 291.627L19.8953 290.803ZM26.7025 305.871L19.8953 290.803L18.0727 291.627L24.8798 306.695L26.7025 305.871ZM90.3306 330.876C65.8497 341.157 37.6339 330.069 26.7025 305.871L24.8798 306.695C36.2575 331.88 65.6249 343.421 91.1051 332.72L90.3306 330.876ZM256.656 261.023L90.3306 330.876L91.1051 332.72L257.43 262.867L256.656 261.023ZM260.174 259.258C259.055 259.917 257.881 260.508 256.656 261.023L257.43 262.867C258.739 262.317 259.994 261.686 261.19 260.981L260.174 259.258ZM276.815 240.076C274.428 248.984 268.144 255.806 260.285 259.201L261.079 261.037C269.474 257.41 276.195 250.117 278.747 240.593L276.815 240.076ZM324.005 63.9608L276.815 240.076L278.747 240.593L325.937 64.4784L324.005 63.9608Z" fill="black" mask="url(#path-1-inside-1_362_7)"/>
<rect x="205.38" y="67.5045" width="114.216" height="28.8944" transform="rotate(15 205.38 67.5045)" fill="white" stroke="black"/>
</svg>
