<svg width="147" height="30" viewBox="0 0 147 30" fill="none" xmlns="http://www.w3.org/2000/svg">
<path d="M14.5 0L17.7555 10.3647H28.2903L19.7674 16.7705L23.0229 27.1353L14.5 20.7295L5.97711 27.1353L9.23257 16.7705L0.709681 10.3647H11.2445L14.5 0Z" fill="#FDD219"/>
<path d="M43.5 0L46.7555 10.3647H57.2903L48.7674 16.7705L52.0229 27.1353L43.5 20.7295L34.9771 27.1353L38.2326 16.7705L29.7097 10.3647H40.2445L43.5 0Z" fill="#FDD219"/>
<path d="M72.5 0L75.7555 10.3647H86.2903L77.7674 16.7705L81.0229 27.1353L72.5 20.7295L63.9771 27.1353L67.2326 16.7705L58.7097 10.3647H69.2445L72.5 0Z" fill="#FDD219"/>
<path d="M103.5 0L106.755 10.3647H117.29L108.767 16.7705L112.023 27.1353L103.5 20.7295L94.9771 27.1353L98.2326 16.7705L89.7097 10.3647H100.245L103.5 0Z" fill="#FDD219"/>
<path d="M132.5 0L135.755 10.3647H146.29L137.767 16.7705L141.023 27.1353L132.5 20.7295L123.977 27.1353L127.233 16.7705L118.71 10.3647H129.245L132.5 0Z" fill="#FDD219"/>
</svg>
