<svg width="472" height="85" viewBox="0 0 472 85" fill="none" xmlns="http://www.w3.org/2000/svg">
<path d="M20.3779 64.8789C15.8662 64.8789 12.1895 64.1611 9.34766 62.7256C6.50586 61.2607 4.38184 58.917 2.97559 55.6943C1.59863 52.4424 0.910156 48.1064 0.910156 42.6865V20.8896C0.910156 14.6787 2.4043 9.81543 5.39258 6.2998C8.38086 2.75488 13.0391 0.982422 19.3672 0.982422C24.7871 0.982422 29.0645 2.24219 32.1992 4.76172C35.334 7.25195 36.9014 11.0313 36.9014 16.0996C36.9014 17.3594 36.5645 18.8096 35.8906 20.4502C35.2461 22.0908 34.2354 23.6289 32.8584 25.0645C31.4814 26.4707 29.8115 27.4814 27.8486 28.0967C30.1924 28.2725 32.2285 29.166 33.957 30.7773C35.6855 32.3594 37.0039 34.3662 37.9121 36.7979C38.8203 39.2295 39.2744 41.7197 39.2744 44.2686C39.2744 48.4873 38.4834 52.1494 36.9014 55.2549C35.3486 58.3604 33.1514 60.748 30.3096 62.418C27.4678 64.0586 24.1572 64.8789 20.3779 64.8789ZM19.7188 59.6934C24.4648 59.6934 27.8047 58.375 29.7383 55.7383C31.7012 53.1016 32.6826 49.3223 32.6826 44.4004C32.6826 41.3828 32.126 38.8633 31.0127 36.8418C29.9287 34.8203 28.4785 33.3408 26.6621 32.4033C24.8457 31.4365 22.8682 30.9531 20.7295 30.9531C18.9717 30.9531 17.3457 31.1289 15.8516 31.4805C14.3574 31.832 12.9805 32.5352 11.7207 33.5898V28.3604C14.0645 26.9541 17.7852 26.1484 22.8828 25.9434C24.5527 25.8848 25.9443 25.3428 27.0576 24.3174C28.2002 23.2627 29.0352 21.9883 29.5625 20.4941C30.0898 19 30.3535 17.5352 30.3535 16.0996C30.3535 12.8184 29.4307 10.3867 27.585 8.80469C25.7686 7.19336 23.0293 6.3877 19.3672 6.3877C16.1445 6.3877 13.625 6.92969 11.8086 8.01367C9.99219 9.06836 8.71777 10.5918 7.98535 12.584C7.28223 14.5762 6.93066 17.0811 6.93066 20.0986V42.6865C6.93066 47.2275 7.35547 50.7139 8.20508 53.1455C9.08398 55.5771 10.4316 57.2764 12.248 58.2432C14.0645 59.21 16.5547 59.6934 19.7188 59.6934ZM64.4111 65.0107C60.9248 65.0107 58.0684 64.1758 55.8418 62.5059C53.6152 60.8359 51.9893 58.5947 50.9639 55.7822C49.9678 52.9697 49.4697 49.8057 49.4697 46.29V20.0986H55.4023V46.4658C55.4023 50.2158 56.1055 53.4092 57.5117 56.0459C58.9473 58.6533 61.3936 59.957 64.8506 59.957C67.2529 59.957 69.4795 59.2686 71.5303 57.8916C73.6104 56.5146 75.2656 54.6982 76.4961 52.4424C77.7266 50.1865 78.3418 47.8281 78.3418 45.3672V20.0986H84.2744V64H78.3418V56.3535C77.7559 57.6426 76.7891 58.9609 75.4414 60.3086C74.123 61.627 72.5117 62.7402 70.6074 63.6484C68.7031 64.5566 66.6377 65.0107 64.4111 65.0107ZM117.937 83.248C114.128 83.248 110.847 82.5449 108.093 81.1387C105.368 79.7617 102.922 77.623 100.754 74.7227L105.456 71.207C106.218 72.3496 107.229 73.4482 108.488 74.5029C109.777 75.5869 111.213 76.4658 112.795 77.1396C114.377 77.8135 115.974 78.1504 117.585 78.1504C120.192 78.1504 122.39 77.5498 124.177 76.3486C125.993 75.1768 127.355 73.5508 128.264 71.4707C129.201 69.3906 129.699 67.0176 129.758 64.3516V57.7158C126.564 62.4912 121.936 64.8789 115.871 64.8789C112.209 64.8789 109.016 63.8828 106.291 61.8906C103.596 59.8691 101.516 57.1299 100.051 53.6729C98.6152 50.1865 97.8975 46.3047 97.8975 42.0273C97.8975 37.75 98.6152 33.8828 100.051 30.4258C101.516 26.9395 103.596 24.2002 106.291 22.208C109.016 20.1865 112.209 19.1758 115.871 19.1758C121.906 19.1758 126.535 21.5781 129.758 26.3828V20.0986H135.778V64.3516C135.778 68.1895 135.061 71.5293 133.625 74.3711C132.219 77.2129 130.168 79.3955 127.473 80.9189C124.807 82.4717 121.628 83.248 117.937 83.248ZM117.409 59.6934C120.31 59.6934 122.712 58.9023 124.616 57.3203C126.55 55.709 127.956 53.585 128.835 50.9482C129.743 48.2822 130.197 45.3379 130.197 42.1152C130.197 38.8633 129.743 35.9043 128.835 33.2383C127.956 30.5723 126.55 28.4336 124.616 26.8223C122.712 25.2109 120.31 24.4053 117.409 24.4053C114.509 24.4053 112.077 25.2109 110.114 26.8223C108.181 28.4336 106.745 30.5869 105.808 33.2822C104.899 35.9482 104.445 38.8926 104.445 42.1152C104.445 45.3086 104.899 48.2383 105.808 50.9043C106.745 53.5703 108.181 55.709 110.114 57.3203C112.077 58.9023 114.509 59.6934 117.409 59.6934ZM170.012 64.8789C166.818 64.8789 163.859 64.2637 161.135 63.0332C158.41 61.7734 156.213 59.8691 154.543 57.3203C152.902 54.7715 152.082 51.6221 152.082 47.8721V20.0986H158.103V35.04C159.187 33.2236 160.739 31.6855 162.761 30.4258C164.782 29.166 167.199 28.5361 170.012 28.5361C173.293 28.5361 176.354 29.21 179.196 30.5576C182.067 31.876 184.367 33.9121 186.096 36.666C187.854 39.3906 188.732 42.7451 188.732 46.7295C188.732 50.7139 187.854 54.0684 186.096 56.793C184.367 59.5176 182.067 61.5537 179.196 62.9014C176.354 64.2197 173.293 64.8789 170.012 64.8789ZM195.544 20.0986H201.608V64H195.544V20.0986ZM170.012 59.6055C172.385 59.6055 174.479 59.0488 176.296 57.9355C178.112 56.793 179.504 55.2549 180.471 53.3213C181.467 51.3584 181.965 49.1611 181.965 46.7295C181.965 44.2979 181.467 42.1152 180.471 40.1816C179.504 38.2188 178.112 36.6807 176.296 35.5674C174.479 34.4248 172.385 33.8535 170.012 33.8535C167.814 33.8535 165.852 34.3369 164.123 35.3037C162.395 36.2705 161.018 37.6035 159.992 39.3027C158.967 41.002 158.337 42.9355 158.103 45.1035V48.3555C158.337 50.5234 158.967 52.457 159.992 54.1562C161.018 55.8555 162.395 57.1885 164.123 58.1553C165.852 59.1221 167.814 59.6055 170.012 59.6055ZM275.217 84.1709C272.551 84.1709 270.251 83.8633 268.317 83.248C266.384 82.6328 264.67 81.7832 263.176 80.6992C261.711 79.6152 260.085 78.165 258.298 76.3486L262.604 72.833C264.04 74.8545 265.725 76.3779 267.658 77.4033C269.621 78.4287 271.936 78.9414 274.602 78.9414C278.938 78.9414 282.16 77.4766 284.27 74.5469C286.408 71.6465 287.478 67.7646 287.478 62.9014C287.478 59.8838 286.921 57.3789 285.808 55.3867C284.724 53.3652 283.273 51.8857 281.457 50.9482C279.67 49.9814 277.707 49.498 275.568 49.498H266.56V44.2686H277.722C279.157 43.917 280.446 43.2432 281.589 42.2471C282.731 41.2217 283.61 40.0352 284.226 38.6875C284.87 37.3105 285.192 35.9629 285.192 34.6445C285.192 30.9531 284.299 28.3164 282.512 26.7344C280.725 25.123 277.956 24.3174 274.206 24.3174C271.774 24.3174 269.636 24.9326 267.79 26.1631C265.944 27.3936 264.494 29.0195 263.439 31.041L258.913 28.5361C260.407 25.7236 262.458 23.5264 265.065 21.9443C267.673 20.333 270.72 19.5273 274.206 19.5273C279.567 19.5273 283.742 20.7725 286.73 23.2627C289.748 25.7529 291.257 29.5469 291.257 34.6445C291.257 35.9629 290.964 37.4424 290.378 39.083C289.792 40.6943 288.854 42.2031 287.565 43.6094C286.276 45.0156 284.65 46.0264 282.688 46.6416C285.031 46.8174 287.038 47.7109 288.708 49.3223C290.378 50.9043 291.638 52.8965 292.487 55.2988C293.337 57.7012 293.762 60.2061 293.762 62.8135C293.762 67.0615 293 70.7969 291.477 74.0195C289.953 77.2422 287.785 79.7324 284.973 81.4902C282.189 83.2773 278.938 84.1709 275.217 84.1709ZM315.646 64.8789C313.186 64.8789 310.915 64.3516 308.835 63.2969C306.784 62.2129 305.158 60.7041 303.957 58.7705C302.756 56.8369 302.155 54.625 302.155 52.1348C302.155 47.6816 303.532 44.4004 306.286 42.291C309.069 40.1523 312.878 39.083 317.712 39.083H331.643C331.643 34.3076 330.764 30.7041 329.006 28.2725C327.248 25.8115 324.26 24.5811 320.041 24.5811C317.551 24.5811 315.251 25.2109 313.142 26.4707C311.062 27.7012 309.406 29.2246 308.176 31.041L303.869 27.6572C305.832 24.9033 308.161 22.8379 310.856 21.4609C313.552 20.0547 316.73 19.3516 320.393 19.3516C323.908 19.3516 326.911 20.084 329.401 21.5488C331.921 22.9844 333.825 25.0352 335.114 27.7012C336.403 30.3379 337.048 33.4434 337.048 37.0176V64H332.038L331.818 56.0898C329.855 59.0781 327.57 61.29 324.963 62.7256C322.385 64.1611 319.279 64.8789 315.646 64.8789ZM317.36 59.4297C320.085 59.4297 322.531 58.6826 324.699 57.1885C326.896 55.6943 328.596 53.7607 329.797 51.3877C331.027 49.0146 331.643 46.583 331.643 44.0928H318.327C315.456 44.0928 313.068 44.7959 311.164 46.2021C309.289 47.5791 308.352 49.5566 308.352 52.1348C308.352 54.7129 309.201 56.5732 310.9 57.7158C312.629 58.8584 314.782 59.4297 317.36 59.4297ZM352.209 1.90527H358.273V36.4463H364.294L373.918 20.0986H381.389L370.402 37.8965C371.838 37.8965 373.127 38.5996 374.27 40.0059C375.412 41.4121 376.35 43.082 377.082 45.0156L384.157 64H377.258L371.853 48.1797C371.062 45.8652 370.109 44.21 368.996 43.2139C367.883 42.1885 366.403 41.6758 364.558 41.6758H358.273V64H352.209V1.90527ZM405.734 64.8789C403.273 64.8789 401.003 64.3516 398.923 63.2969C396.872 62.2129 395.246 60.7041 394.045 58.7705C392.844 56.8369 392.243 54.625 392.243 52.1348C392.243 47.6816 393.62 44.4004 396.374 42.291C399.157 40.1523 402.966 39.083 407.8 39.083H421.73C421.73 34.3076 420.852 30.7041 419.094 28.2725C417.336 25.8115 414.348 24.5811 410.129 24.5811C407.639 24.5811 405.339 25.2109 403.229 26.4707C401.149 27.7012 399.494 29.2246 398.264 31.041L393.957 27.6572C395.92 24.9033 398.249 22.8379 400.944 21.4609C403.64 20.0547 406.818 19.3516 410.48 19.3516C413.996 19.3516 416.999 20.084 419.489 21.5488C422.009 22.9844 423.913 25.0352 425.202 27.7012C426.491 30.3379 427.136 33.4434 427.136 37.0176V64H422.126L421.906 56.0898C419.943 59.0781 417.658 61.29 415.051 62.7256C412.473 64.1611 409.367 64.8789 405.734 64.8789ZM407.448 59.4297C410.173 59.4297 412.619 58.6826 414.787 57.1885C416.984 55.6943 418.684 53.7607 419.885 51.3877C421.115 49.0146 421.73 46.583 421.73 44.0928H408.415C405.544 44.0928 403.156 44.7959 401.252 46.2021C399.377 47.5791 398.439 49.5566 398.439 52.1348C398.439 54.7129 399.289 56.5732 400.988 57.7158C402.717 58.8584 404.87 59.4297 407.448 59.4297ZM452.932 84.1709C450.266 84.1709 447.966 83.8633 446.032 83.248C444.099 82.6328 442.385 81.7832 440.891 80.6992C439.426 79.6152 437.8 78.165 436.013 76.3486L440.319 72.833C441.755 74.8545 443.439 76.3779 445.373 77.4033C447.336 78.4287 449.65 78.9414 452.316 78.9414C456.652 78.9414 459.875 77.4766 461.984 74.5469C464.123 71.6465 465.192 67.7646 465.192 62.9014C465.192 59.8838 464.636 57.3789 463.522 55.3867C462.438 53.3652 460.988 51.8857 459.172 50.9482C457.385 49.9814 455.422 49.498 453.283 49.498H444.274V44.2686H455.437C456.872 43.917 458.161 43.2432 459.304 42.2471C460.446 41.2217 461.325 40.0352 461.94 38.6875C462.585 37.3105 462.907 35.9629 462.907 34.6445C462.907 30.9531 462.014 28.3164 460.227 26.7344C458.439 25.123 455.671 24.3174 451.921 24.3174C449.489 24.3174 447.351 24.9326 445.505 26.1631C443.659 27.3936 442.209 29.0195 441.154 31.041L436.628 28.5361C438.122 25.7236 440.173 23.5264 442.78 21.9443C445.388 20.333 448.435 19.5273 451.921 19.5273C457.282 19.5273 461.457 20.7725 464.445 23.2627C467.463 25.7529 468.972 29.5469 468.972 34.6445C468.972 35.9629 468.679 37.4424 468.093 39.083C467.507 40.6943 466.569 42.2031 465.28 43.6094C463.991 45.0156 462.365 46.0264 460.402 46.6416C462.746 46.8174 464.753 47.7109 466.423 49.3223C468.093 50.9043 469.353 52.8965 470.202 55.2988C471.052 57.7012 471.477 60.2061 471.477 62.8135C471.477 67.0615 470.715 70.7969 469.191 74.0195C467.668 77.2422 465.5 79.7324 462.688 81.4902C459.904 83.2773 456.652 84.1709 452.932 84.1709Z" fill="white"/>
</svg>
