<svg width="260" height="297" viewBox="0 0 260 297" fill="none" xmlns="http://www.w3.org/2000/svg">
<rect x="0.530273" y="23.5554" width="232.977" height="274.167" transform="rotate(-5.64866 0.530273 23.5554)" fill="#FDD219"/>
<ellipse cx="120.599" cy="27.8478" rx="10.9409" ry="7.07943" transform="rotate(-5.64866 120.599 27.8478)" fill="white"/>
<path d="M94.3196 255.37C95.9431 254.347 100.022 252.865 103.349 255.123C106.677 257.381 109.86 255.557 111.035 254.363C112.424 253.148 115.905 251.294 118.72 253.603" stroke="black" stroke-width="2"/>
<line x1="92.855" y1="250.166" x2="98.1091" y2="268.923" stroke="black" stroke-width="2"/>
<line x1="117.121" y1="267.042" x2="118.598" y2="247.62" stroke="black" stroke-width="2"/>
<path d="M97.0781 268.678L118.066 266.602" stroke="black" stroke-width="2"/>
<path d="M131.58 265.912C131.305 263.137 131.909 257.472 136.52 257.016C141.132 256.56 152.959 255.39 158.296 254.862" stroke="black" stroke-width="2"/>
<path d="M131.517 265.272L160.978 262.358" stroke="black" stroke-width="2"/>
<path d="M134.867 246.832L154.08 244.932L161.682 262.935" stroke="black" stroke-width="2"/>
<path d="M172.509 260.536L179.721 242.626L190.301 258.776L172.509 260.536Z" stroke="black" stroke-width="2"/>
<path d="M173.168 241.769L190.238 259.055" stroke="black" stroke-width="2"/>
<line x1="173.203" y1="260.756" x2="186.673" y2="240.021" stroke="black" stroke-width="2"/>
</svg>
