<svg width="202" height="88" viewBox="0 0 202 88" fill="none" xmlns="http://www.w3.org/2000/svg">
<rect width="202" height="88" fill="#28BD40"/>
<line x1="35.5" y1="1" x2="35.5" y2="88" stroke="black"/>
<path d="M26 79.2817H7.99961" stroke="black" stroke-width="2"/>
<path d="M26 65.5H7.99981" stroke="black"/>
<path d="M26 70.5088H8" stroke="black" stroke-width="2"/>
<path d="M26 76H7.99981" stroke="black"/>
<path d="M26 73H7.99981" stroke="black"/>
<path d="M26 68H7.99981" stroke="black"/>
<path d="M26 41H7.99981" stroke="black"/>
<path d="M26 65.5H7.99981" stroke="black"/>
<path d="M26 64H7.99981" stroke="black"/>
<path d="M26 57H7.99981" stroke="black"/>
<path d="M26 52H7.99981" stroke="black"/>
<path d="M26 47H7.99981" stroke="black"/>
<path d="M26 59.0426H8" stroke="black"/>
<path d="M26 54.6558H8" stroke="black"/>
<path d="M26 49.6732H8" stroke="black" stroke-width="2"/>
<path d="M26 43.0931H8" stroke="black" stroke-width="2"/>
<path d="M26 32L8 32" stroke="black" stroke-width="2"/>
<path d="M26 62H8" stroke="black" stroke-width="2"/>
<path d="M25.9375 38.2065H8" stroke="black"/>
<path d="M25.9575 33.8203H8" stroke="black"/>
<path d="M25.9575 36H8" stroke="black"/>
<path d="M25.9575 21L8 21" stroke="black"/>
<path d="M25.9575 30L8 30" stroke="black"/>
<path d="M25.9575 28L8 28" stroke="black"/>
<path d="M25.9575 19L8 19" stroke="black"/>
<path d="M25.9575 12L8 12" stroke="black"/>
<path d="M25.9575 14L8 14" stroke="black"/>
<path d="M25.9575 10L8 10" stroke="black"/>
<path d="M25.9575 45H8" stroke="black"/>
<path d="M26 16.7733L8 16.7733" stroke="black" stroke-width="2"/>
<path d="M25.9424 8L8 8" stroke="black" stroke-width="2"/>
<path d="M26 24.3531L8 24.3531" stroke="black" stroke-width="4"/>
</svg>
