<svg width="567" height="482" viewBox="0 0 567 482" fill="none" xmlns="http://www.w3.org/2000/svg">
<line y1="-0.5" x2="80.0121" y2="-0.5" transform="matrix(-0.0149686 -0.999888 0.999997 -0.00260911 48.395 186.003)" stroke="black"/>
<line x1="46" y1="106.503" x2="149" y2="106.503" stroke="black"/>
<line y1="-0.5" x2="70.0039" y2="-0.5" transform="matrix(-0.00935045 0.999956 -0.999813 -0.0193601 321.695 306.999)" stroke="black"/>
<line y1="-0.5" x2="123" y2="-0.5" transform="matrix(1 0 0 -1 321 376.422)" stroke="black"/>
<path d="M409 185.5L409 135" stroke="black"/>
<line x1="409" y1="134.976" x2="523" y2="134.976" stroke="black"/>
<path d="M178 283L178 336" stroke="black"/>
<line x1="178" y1="336.001" x2="85" y2="336.001" stroke="black"/>
<rect x="365.5" y="31.5" width="201" height="87" fill="white" stroke="black"/>
<line x1="402.5" y1="32" x2="402.5" y2="119" stroke="black"/>
<line x1="392.546" y1="110.282" x2="375" y2="110.282" stroke="black" stroke-width="2"/>
<line x1="392.587" y1="101.509" x2="375.04" y2="101.509" stroke="black" stroke-width="2"/>
<line x1="392.607" y1="96.6226" x2="375.06" y2="96.6226" stroke="black"/>
<line x1="392.637" y1="90.0425" x2="375.091" y2="90.0425" stroke="black"/>
<line x1="392.794" y1="85.6558" x2="375.111" y2="85.6558" stroke="black"/>
<line x1="392.887" y1="80.6733" x2="375.204" y2="80.6733" stroke="black" stroke-width="2"/>
<line x1="392.917" y1="74.0933" x2="375.234" y2="74.0933" stroke="black" stroke-width="2"/>
<line x1="392.938" y1="69.2065" x2="375.254" y2="69.2065" stroke="black"/>
<line x1="392.958" y1="64.8203" x2="375.274" y2="64.8203" stroke="black"/>
<line x1="392.902" y1="47.7734" x2="375.355" y2="47.7734" stroke="black" stroke-width="2"/>
<line x1="392.942" y1="39" x2="375.396" y2="39" stroke="black" stroke-width="2"/>
<line x1="393.008" y1="55.353" x2="375.325" y2="55.353" stroke="black" stroke-width="4"/>
<rect x="343.5" y="394.5" width="201" height="87" fill="white" stroke="black"/>
<line x1="380.5" y1="395" x2="380.5" y2="482" stroke="black"/>
<line x1="370.546" y1="473.282" x2="353" y2="473.282" stroke="black" stroke-width="2"/>
<line x1="370.587" y1="464.509" x2="353.04" y2="464.509" stroke="black" stroke-width="2"/>
<line x1="370.607" y1="459.623" x2="353.06" y2="459.623" stroke="black"/>
<line x1="370.637" y1="453.042" x2="353.091" y2="453.042" stroke="black"/>
<line x1="370.794" y1="448.656" x2="353.111" y2="448.656" stroke="black"/>
<line x1="370.887" y1="443.673" x2="353.204" y2="443.673" stroke="black" stroke-width="2"/>
<line x1="370.917" y1="437.093" x2="353.234" y2="437.093" stroke="black" stroke-width="2"/>
<line x1="370.938" y1="432.207" x2="353.254" y2="432.207" stroke="black"/>
<line x1="370.958" y1="427.82" x2="353.274" y2="427.82" stroke="black"/>
<line x1="370.902" y1="410.773" x2="353.355" y2="410.773" stroke="black" stroke-width="2"/>
<line x1="370.942" y1="402" x2="353.396" y2="402" stroke="black" stroke-width="2"/>
<line x1="371.008" y1="418.353" x2="353.325" y2="418.353" stroke="black" stroke-width="4"/>
<rect x="0.5" y="369.5" width="201" height="87" fill="white" stroke="black"/>
<line x1="37.5" y1="370" x2="37.5" y2="457" stroke="black"/>
<line x1="27.5464" y1="448.282" x2="9.99981" y2="448.282" stroke="black" stroke-width="2"/>
<line x1="27.5869" y1="439.509" x2="10.0403" y2="439.509" stroke="black" stroke-width="2"/>
<line x1="27.6069" y1="434.623" x2="10.0604" y2="434.623" stroke="black"/>
<line x1="27.6372" y1="428.042" x2="10.0906" y2="428.042" stroke="black"/>
<line x1="27.7939" y1="423.656" x2="10.1108" y2="423.656" stroke="black"/>
<line x1="27.8872" y1="418.673" x2="10.2041" y2="418.673" stroke="black" stroke-width="2"/>
<line x1="27.9175" y1="412.093" x2="10.2344" y2="412.093" stroke="black" stroke-width="2"/>
<line x1="27.9375" y1="407.207" x2="10.2544" y2="407.207" stroke="black"/>
<line x1="27.9575" y1="402.82" x2="10.2744" y2="402.82" stroke="black"/>
<line x1="27.9019" y1="385.773" x2="10.3553" y2="385.773" stroke="black" stroke-width="2"/>
<line x1="27.9424" y1="377" x2="10.3958" y2="377" stroke="black" stroke-width="2"/>
<line x1="28.0083" y1="393.353" x2="10.3252" y2="393.353" stroke="black" stroke-width="4"/>
<rect x="0.5" y="0.5" width="201" height="87" fill="white" stroke="black"/>
<line x1="37.5" y1="1" x2="37.5" y2="88" stroke="black"/>
<line x1="27.5464" y1="79.2817" x2="9.99981" y2="79.2817" stroke="black" stroke-width="2"/>
<line x1="27.5869" y1="70.5088" x2="10.0403" y2="70.5088" stroke="black" stroke-width="2"/>
<line x1="27.6069" y1="65.6226" x2="10.0604" y2="65.6226" stroke="black"/>
<line x1="27.6372" y1="59.0425" x2="10.0906" y2="59.0425" stroke="black"/>
<line x1="27.7939" y1="54.6558" x2="10.1108" y2="54.6558" stroke="black"/>
<line x1="27.8872" y1="49.6733" x2="10.2041" y2="49.6733" stroke="black" stroke-width="2"/>
<line x1="27.9175" y1="43.0933" x2="10.2344" y2="43.0933" stroke="black" stroke-width="2"/>
<line x1="27.9375" y1="38.2065" x2="10.2544" y2="38.2065" stroke="black"/>
<line x1="27.9575" y1="33.8203" x2="10.2744" y2="33.8203" stroke="black"/>
<line x1="27.9019" y1="16.7734" x2="10.3553" y2="16.7734" stroke="black" stroke-width="2"/>
<line x1="27.9424" y1="8" x2="10.3958" y2="8" stroke="black" stroke-width="2"/>
<line x1="28.0083" y1="24.353" x2="10.3252" y2="24.353" stroke="black" stroke-width="4"/>
</svg>
